<mxfile host="app.diagrams.net" modified="2023-11-13T02:50:16.053Z" agent="Mozilla/5.0 (Macintosh; Intel Mac OS X 10_15_7) AppleWebKit/537.36 (KHTML, like Gecko) Chrome/119.0.0.0 Safari/537.36" version="22.1.0" etag="Ab4E0_KD607tZG5oPpwg" type="github">
  <diagram name="Trang-1" id="hKI_ZCjW8N4KmhKxTKtP">
    <mxGraphModel>
      <root>
        <mxCell id="0" />
        <mxCell id="1" parent="0" />
      </root>
    </mxGraphModel>
  </diagram>
</mxfile>
